<svg width="166" height="93" viewBox="0 0 166 93" fill="none" xmlns="http://www.w3.org/2000/svg">
<g clip-path="url(#clip0_431_203)">
<path d="M65.3714 27.596C65.469 27.5887 65.5486 27.6249 65.61 27.7045C72.3005 36.2321 79.2478 45.1341 86.4518 54.4104C87.5259 55.7937 89.5114 56.2819 91.0194 55.3923C92.278 54.6473 92.9091 53.7504 92.9127 52.7016C92.9561 40.6949 92.9669 29.6194 92.9452 19.4752C92.9452 18.0919 93.0863 16.9472 92.2454 15.8297C90.2546 13.1988 86.6742 15.1625 86.6742 18.1407C86.6706 26.3682 86.667 34.5432 86.6634 42.6659C86.6634 43.183 86.5061 43.2373 86.1914 42.8286C79.4467 34.1418 72.57 25.2688 65.5612 16.2095C63.4076 13.4266 58.9539 14.5821 58.9539 18.2654C58.9539 29.5199 58.9503 40.8377 58.9431 52.2188C58.9431 57.0631 65.2629 56.9763 65.252 52.2731C65.2267 43.8539 65.2231 35.6734 65.2412 27.7316C65.2412 27.6448 65.2846 27.5996 65.3714 27.596Z" stroke="black" stroke-width="2"/>
<path d="M109.306 21.1134C114.17 21.1351 118.912 21.1351 123.53 21.1134C126.172 21.0972 128.917 19.1768 127.305 16.3017C126.703 15.2276 125.363 14.6255 124.181 14.6255C118.101 14.6146 111.91 14.6092 105.606 14.6092C103.42 14.6092 101.798 16.1552 101.798 18.3523C101.809 30.4458 101.809 41.7075 101.798 52.1374C101.793 57.0522 108.964 57.0522 108.948 51.915C108.93 47.6006 108.926 43.221 108.937 38.7763C108.937 38.5702 109.042 38.4671 109.252 38.4671C113.447 38.4997 117.465 38.4961 121.306 38.4563C126.318 38.402 126.296 32.0009 121.533 31.9846C117.508 31.9701 113.382 31.9665 109.154 31.9737C109.088 31.9737 109.025 31.9474 108.978 31.9007C108.931 31.8539 108.905 31.7904 108.905 31.7242L108.921 21.4986C108.921 21.2418 109.049 21.1134 109.306 21.1134Z" stroke="black" stroke-width="2"/>
<path d="M141.768 48.4432C141.775 39.0873 141.777 29.0172 141.773 18.2329C141.773 13.4808 134.688 13.5405 134.694 18.1461C134.708 29.7731 134.69 41.109 134.64 52.1537C134.629 54.4592 136.348 55.8588 138.567 55.8534C145.627 55.8425 151.822 55.8353 157.152 55.8317C161.546 55.8262 161.991 48.8229 156.496 48.8012C151.888 48.7831 147.1 48.7831 142.131 48.8012C141.889 48.8012 141.768 48.6819 141.768 48.4432Z" stroke="black" stroke-width="2"/>
<path d="M54.2507 5.93506H166V62.3522H54.2507V5.93506ZM65.3714 27.596C65.469 27.5887 65.5486 27.6249 65.61 27.7045C72.3005 36.2321 79.2478 45.1341 86.4518 54.4104C87.5259 55.7937 89.5114 56.2819 91.0194 55.3923C92.278 54.6473 92.9091 53.7504 92.9127 52.7016C92.9561 40.6949 92.9669 29.6194 92.9452 19.4752C92.9452 18.0919 93.0863 16.9472 92.2454 15.8298C90.2546 13.1988 86.6742 15.1625 86.6742 18.1407C86.6706 26.3682 86.667 34.5432 86.6634 42.6659C86.6634 43.183 86.5061 43.2373 86.1914 42.8286C79.4467 34.1418 72.57 25.2688 65.5612 16.2095C63.4076 13.4266 58.9539 14.5821 58.9539 18.2655C58.9539 29.52 58.9503 40.8377 58.9431 52.2188C58.9431 57.0631 65.2629 56.9763 65.252 52.2731C65.2267 43.8539 65.2231 35.6734 65.2412 27.7316C65.2412 27.6448 65.2846 27.5996 65.3714 27.596ZM109.306 21.1134C114.17 21.1351 118.912 21.1351 123.53 21.1134C126.172 21.0972 128.917 19.1768 127.305 16.3017C126.703 15.2276 125.363 14.6255 124.181 14.6255C118.101 14.6146 111.91 14.6092 105.607 14.6092C103.42 14.6092 101.798 16.1552 101.798 18.3523C101.809 30.4458 101.809 41.7075 101.798 52.1374C101.793 57.0522 108.964 57.0522 108.948 51.915C108.93 47.6006 108.926 43.221 108.937 38.7763C108.937 38.5702 109.042 38.4671 109.252 38.4671C113.447 38.4997 117.465 38.4961 121.306 38.4563C126.318 38.402 126.296 32.0009 121.534 31.9846C117.508 31.9701 113.382 31.9665 109.154 31.9737C109.088 31.9737 109.025 31.9474 108.978 31.9006C108.931 31.8538 108.905 31.7904 108.905 31.7242L108.921 21.4986C108.921 21.2418 109.049 21.1134 109.306 21.1134ZM141.768 48.4432C141.775 39.0874 141.777 29.0173 141.773 18.2329C141.773 13.4808 134.688 13.5405 134.694 18.1461C134.708 29.7731 134.69 41.109 134.64 52.1537C134.629 54.4592 136.348 55.8588 138.567 55.8534C145.627 55.8425 151.822 55.8353 157.152 55.8317C161.546 55.8262 161.991 48.8229 156.496 48.8012C151.888 48.7831 147.1 48.7831 142.131 48.8012C141.889 48.8012 141.768 48.6819 141.768 48.4432Z" fill="black"/>
<path d="M65.3714 27.596C65.2846 27.5996 65.2412 27.6448 65.2412 27.7316C65.2231 35.6734 65.2267 43.8539 65.252 52.2731C65.2629 56.9763 58.9431 57.0631 58.9431 52.2188C58.9503 40.8377 58.9539 29.5199 58.9539 18.2654C58.9539 14.5821 63.4076 13.4266 65.5612 16.2095C72.57 25.2688 79.4467 34.1418 86.1914 42.8286C86.5061 43.2373 86.6634 43.183 86.6634 42.6659C86.667 34.5432 86.6706 26.3682 86.6742 18.1407C86.6742 15.1625 90.2546 13.1988 92.2454 15.8297C93.0863 16.9472 92.9452 18.0919 92.9452 19.4752C92.9669 29.6194 92.9561 40.6949 92.9127 52.7016C92.9091 53.7504 92.278 54.6473 91.0194 55.3923C89.5114 56.2819 87.5259 55.7937 86.4518 54.4104C79.2478 45.1341 72.3005 36.2321 65.61 27.7045C65.5486 27.6249 65.469 27.5887 65.3714 27.596Z" fill="white"/>
<path d="M108.921 21.4986L108.905 31.7242C108.905 31.7904 108.931 31.8539 108.978 31.9007C109.025 31.9474 109.088 31.9737 109.154 31.9737C113.382 31.9665 117.508 31.9701 121.533 31.9846C126.296 32.0009 126.318 38.402 121.306 38.4563C117.465 38.4961 113.447 38.4997 109.252 38.4671C109.042 38.4671 108.937 38.5702 108.937 38.7763C108.926 43.221 108.93 47.6006 108.948 51.915C108.964 57.0522 101.793 57.0522 101.798 52.1374C101.809 41.7075 101.809 30.4458 101.798 18.3523C101.798 16.1552 103.42 14.6092 105.606 14.6092C111.91 14.6092 118.101 14.6146 124.181 14.6255C125.363 14.6255 126.703 15.2276 127.305 16.3017C128.917 19.1768 126.172 21.0972 123.53 21.1134C118.912 21.1351 114.17 21.1351 109.306 21.1134C109.049 21.1134 108.921 21.2418 108.921 21.4986Z" fill="white"/>
<path d="M142.131 48.8012C147.1 48.7831 151.888 48.7831 156.496 48.8012C161.991 48.8229 161.546 55.8262 157.152 55.8317C151.822 55.8353 145.627 55.8425 138.567 55.8534C136.348 55.8588 134.629 54.4592 134.64 52.1537C134.69 41.109 134.708 29.7731 134.694 18.1461C134.688 13.5405 141.773 13.4809 141.773 18.2329C141.777 29.0173 141.775 39.0874 141.768 48.4432C141.768 48.6819 141.889 48.8012 142.131 48.8012Z" fill="white"/>
</g>
<g clip-path="url(#clip1_431_203)">
<path d="M63.6722 74.9431C62.3418 72.9689 60.5018 71.979 58.1523 71.9734C56.9945 71.9696 55.922 72.2558 54.935 72.8319C50.876 75.2048 50.1413 81.0485 52.6352 84.7725C55.3262 88.7921 60.9306 88.8456 63.6188 84.8006C63.7876 84.5473 63.8721 84.5736 63.8721 84.8795L63.8693 86.5684C63.8693 87.0544 64.101 87.3706 64.5645 87.517C64.6434 87.5414 64.7269 87.5451 64.8151 87.5282C65.3311 87.4382 65.5882 87.1323 65.5863 86.6106V66.2508C65.5845 65.6916 65.3067 65.382 64.7531 65.3219C64.6762 65.3125 64.603 65.3229 64.5336 65.3529C64.1001 65.5368 63.8834 65.7657 63.8834 66.0397C63.8683 69.0629 63.8646 72.01 63.8721 74.8811C63.8721 75.1195 63.8055 75.1401 63.6722 74.9431Z" stroke="white" stroke-width="2"/>
<path d="M143.487 68.5506C143.487 68.2116 143.353 67.8866 143.113 67.6469C142.873 67.4073 142.548 67.2726 142.209 67.2726C142.041 67.2726 141.875 67.3057 141.72 67.3699C141.565 67.4341 141.424 67.5282 141.306 67.6469C141.187 67.7656 141.093 67.9065 141.029 68.0615C140.964 68.2166 140.931 68.3827 140.931 68.5506C140.931 68.7184 140.964 68.8846 141.029 69.0396C141.093 69.1946 141.187 69.3355 141.306 69.4542C141.424 69.5729 141.565 69.667 141.72 69.7312C141.875 69.7954 142.041 69.8285 142.209 69.8285C142.548 69.8285 142.873 69.6939 143.113 69.4542C143.353 69.2145 143.487 68.8895 143.487 68.5506Z" stroke="white" stroke-width="2"/>
<path d="M89.9488 73.9353C89.9844 74.6841 89.9938 75.3991 89.9769 76.0803C89.915 78.8369 89.9122 81.5936 89.9685 84.3503C89.9873 85.3167 90.1505 86.012 90.4583 86.4361C90.9255 87.0779 91.603 87.4438 92.4906 87.5339C93.3942 87.6267 95.2125 87.3284 94.5201 85.9772C94.4812 85.9009 94.4187 85.8392 94.342 85.8016C94.2653 85.764 94.1786 85.7526 94.0951 85.7689C92.9353 85.9857 91.6715 85.9238 91.6687 84.3925C91.6574 80.5587 91.6583 77.0589 91.6715 73.8931C91.6715 73.803 91.7165 73.758 91.8066 73.758H94.4919C94.9123 73.758 95.2229 73.5732 95.4237 73.2035C95.4893 73.0853 95.5043 72.967 95.4687 72.8488C95.3111 72.329 94.9611 72.0691 94.4188 72.0691H91.815C91.7024 72.0691 91.648 72.0119 91.6518 71.8974C91.6874 70.9028 91.6762 69.8792 91.618 68.8264C91.6056 68.6146 91.5119 68.4159 91.3565 68.2721C91.2011 68.1282 90.9961 68.0504 90.7848 68.0551L90.6187 68.0579C90.2115 68.0655 90.0023 68.2728 89.991 68.68L89.8953 71.9002C89.8916 72.0109 89.8343 72.0672 89.7236 72.0691L87.6659 72.0719C87.2306 72.0719 86.9641 72.2849 86.8665 72.7109C86.8496 72.7916 86.844 72.8732 86.8496 72.9558C86.8909 73.4868 87.179 73.7533 87.7138 73.7552L89.7686 73.7636C89.8831 73.7636 89.9432 73.8209 89.9488 73.9353Z" stroke="white" stroke-width="2"/>
<path d="M82.1348 74.8558C82.1386 75.0716 82.0795 75.0904 81.9575 74.9121C80.8334 73.272 79.3744 72.3215 77.5804 72.0607C74.1238 71.5596 71.1879 73.4428 70.0085 76.6404C68.4209 80.9359 70.2111 86.6416 75.2019 87.6887C77.8169 88.2376 80.384 87.0553 81.8871 84.8738C82.0598 84.6224 82.1442 84.6496 82.1405 84.9555L82.1292 86.391C82.1236 86.8546 82.3178 87.2111 82.7119 87.4607C82.8432 87.5433 82.968 87.5686 83.0862 87.5367C83.5967 87.4072 83.8528 87.1051 83.8547 86.6303C83.8603 82.0008 83.8575 77.4464 83.8462 72.967C83.8444 72.5129 83.5807 72.2155 83.0553 72.0747C82.9765 72.0522 82.8976 72.0579 82.8188 72.0916C82.3778 72.2812 82.1527 72.588 82.1433 73.0121C82.1301 73.5957 82.1273 74.2103 82.1348 74.8558Z" stroke="white" stroke-width="2"/>
<path d="M110.401 74.9431C107.333 70.3352 100.687 71.2781 98.5847 76.2689C98.0143 77.6219 97.7975 79.1006 97.9345 80.7051C98.216 84.0069 100.158 86.8611 103.435 87.6436C106.106 88.2826 108.791 87.1201 110.311 84.871C110.482 84.6177 110.568 84.644 110.568 84.9498L110.565 86.4839C110.565 86.9662 110.785 87.3059 111.226 87.5029C111.341 87.5536 111.458 87.5564 111.578 87.5113C112.049 87.3274 112.285 86.9831 112.285 86.4783C112.288 82.0496 112.285 77.544 112.273 72.9614C112.273 72.5204 112.012 72.223 111.491 72.0691C111.404 72.0428 111.316 72.0513 111.226 72.0944C110.785 72.3084 110.565 72.6321 110.565 73.0656C110.563 73.6698 110.56 74.2806 110.556 74.898C110.554 75.0819 110.503 75.0969 110.401 74.9431Z" stroke="white" stroke-width="2"/>
<path d="M135.718 73.8002C135.699 73.8059 135.686 73.8181 135.679 73.8368C134.129 77.4323 132.596 81.0203 131.079 84.6008C131.073 84.6165 131.061 84.6299 131.047 84.6393C131.033 84.6487 131.016 84.6537 130.999 84.6537C130.982 84.6537 130.965 84.6487 130.951 84.6393C130.937 84.6299 130.926 84.6165 130.919 84.6008L125.807 72.5251C125.764 72.4245 125.702 72.3335 125.623 72.2576C125.544 72.1817 125.451 72.1224 125.348 72.0832C124.971 71.9387 124.679 71.9462 124.473 72.1057C124.103 72.3909 124.011 72.7484 124.197 73.1782C126.28 77.9728 128.27 82.5535 130.167 86.9202C130.604 87.9223 131.524 87.5986 131.884 86.7598C133.755 82.4155 135.726 77.8208 137.796 72.9755C137.944 72.6246 137.86 72.345 137.545 72.1367C137.481 72.0935 137.413 72.0597 137.34 72.0353C136.861 71.8777 136.506 72.0231 136.276 72.4716C136.063 72.877 135.889 73.3067 135.752 73.7608C135.746 73.7796 135.735 73.7927 135.718 73.8002Z" stroke="white" stroke-width="2"/>
<path d="M143.042 72.9136C143.042 72.6933 142.955 72.4821 142.799 72.3264C142.643 72.1707 142.432 72.0832 142.212 72.0832H142.184C141.964 72.0832 141.752 72.1707 141.597 72.3264C141.441 72.4821 141.354 72.6933 141.354 72.9136V86.7063C141.354 86.8153 141.375 86.9233 141.417 87.0241C141.458 87.1248 141.52 87.2164 141.597 87.2935C141.674 87.3706 141.765 87.4317 141.866 87.4735C141.967 87.5152 142.075 87.5367 142.184 87.5367H142.212C142.321 87.5367 142.429 87.5152 142.53 87.4735C142.631 87.4317 142.722 87.3706 142.799 87.2935C142.876 87.2164 142.937 87.1248 142.979 87.0241C143.021 86.9233 143.042 86.8153 143.042 86.7063V72.9136Z" stroke="white" stroke-width="2"/>
<path d="M149.412 85.6901L158.352 73.5328C158.453 73.3963 158.514 73.2345 158.528 73.0654C158.543 72.8963 158.51 72.7264 158.433 72.5747C158.356 72.4231 158.239 72.2955 158.094 72.2062C157.949 72.117 157.782 72.0695 157.612 72.0691H148.475C148.367 72.0691 148.26 72.0905 148.161 72.1322C148.061 72.1738 147.971 72.2349 147.896 72.3117C147.82 72.3885 147.761 72.4796 147.721 72.5795C147.681 72.6795 147.662 72.7864 147.664 72.8939V73.0177C147.668 73.2149 147.749 73.4027 147.89 73.5411C148.031 73.6795 148.221 73.7573 148.419 73.758L155.932 73.7608C156.04 73.7608 156.063 73.8049 155.999 73.8931L147.062 86.1602C146.967 86.2907 146.91 86.4449 146.897 86.6058C146.884 86.7667 146.916 86.928 146.989 87.0719C147.062 87.2158 147.174 87.3366 147.311 87.4212C147.449 87.5057 147.607 87.5505 147.769 87.5508H157.525C157.719 87.5508 157.907 87.4739 158.046 87.3368C158.325 87.0591 158.432 86.7982 158.366 86.5543C158.241 86.0927 157.939 85.8618 157.46 85.8618H149.505C149.485 85.8614 149.464 85.8556 149.447 85.845C149.429 85.8344 149.415 85.8194 149.405 85.8016C149.395 85.7839 149.391 85.7641 149.392 85.7444C149.394 85.7248 149.401 85.706 149.412 85.6901Z" stroke="white" stroke-width="2"/>
<path d="M58.47 86.2193C59.2056 86.2167 59.9334 86.0503 60.6119 85.7295C61.2904 85.4087 61.9063 84.9398 62.4244 84.3497C62.9425 83.7595 63.3526 83.0595 63.6315 82.2898C63.9103 81.5201 64.0523 80.6956 64.0494 79.8636C64.0465 79.0315 63.8987 78.2081 63.6145 77.4403C63.3303 76.6725 62.9153 75.9755 62.3931 75.3889C61.8709 74.8024 61.2518 74.3378 60.571 74.0218C59.8903 73.7057 59.1613 73.5444 58.4257 73.5469C57.6901 73.5495 56.9623 73.7159 56.2838 74.0367C55.6053 74.3575 54.9894 74.8264 54.4714 75.4166C53.9533 76.0068 53.5431 76.7067 53.2643 77.4764C52.9855 78.2462 52.8435 79.0706 52.8464 79.9027C52.8493 80.7348 52.997 81.5582 53.2812 82.326C53.5654 83.0937 53.9804 83.7908 54.5026 84.3773C55.0248 84.9639 55.644 85.4284 56.3247 85.7445C57.0054 86.0605 57.7344 86.2219 58.47 86.2193Z" stroke="white" stroke-width="2"/>
<path d="M76.6688 86.2221C78.1544 86.2273 79.5815 85.5641 80.6361 84.3785C81.6908 83.1928 82.2865 81.5818 82.2924 79.8999C82.2953 79.067 82.1533 78.2419 81.8745 77.4715C81.5957 76.701 81.1855 76.0005 80.6674 75.4098C80.1493 74.8191 79.5335 74.3498 78.855 74.0287C78.1765 73.7076 77.4486 73.541 76.713 73.5385C75.2274 73.5333 73.8003 74.1965 72.7457 75.3821C71.6911 76.5678 71.0953 78.1788 71.0894 79.8607C71.0865 80.6936 71.2285 81.5187 71.5073 82.2891C71.7861 83.0595 72.1963 83.7601 72.7144 84.3508C73.2325 84.9415 73.8484 85.4108 74.5269 85.7319C75.2054 86.053 75.9332 86.2196 76.6688 86.2221Z" stroke="white" stroke-width="2"/>
<path d="M105.099 86.2221C105.835 86.2247 106.564 86.0632 107.245 85.7469C107.926 85.4305 108.546 84.9655 109.068 84.3785C109.59 83.7914 110.006 83.0937 110.29 82.3253C110.574 81.5568 110.722 80.7327 110.725 79.8999C110.728 79.067 110.586 78.2419 110.307 77.4715C110.028 76.7011 109.618 76.0005 109.099 75.4098C108.581 74.8191 107.965 74.3498 107.286 74.0287C106.607 73.7076 105.879 73.541 105.143 73.5385C104.407 73.5359 103.678 73.6974 102.997 74.0137C102.315 74.3301 101.696 74.7951 101.174 75.3821C100.651 75.9692 100.236 76.6669 99.9515 77.4353C99.6672 78.2038 99.5194 79.0279 99.5165 79.8607C99.5136 80.6936 99.6556 81.5187 99.9346 82.2891C100.214 83.0595 100.624 83.7601 101.142 84.3508C101.661 84.9415 102.277 85.4108 102.956 85.7319C103.634 86.053 104.363 86.2195 105.099 86.2221Z" stroke="white" stroke-width="2"/>
<path d="M49.6543 60.8097H161.404V92.6175H49.6543V60.8097ZM63.6722 74.9431C62.3417 72.9689 60.5018 71.979 58.1523 71.9734C56.9945 71.9696 55.922 72.2558 54.9349 72.8319C50.8759 75.2048 50.1413 81.0485 52.6352 84.7725C55.3262 88.7921 60.9306 88.8456 63.6187 84.8006C63.7876 84.5473 63.8721 84.5736 63.8721 84.8795L63.8693 86.5684C63.8693 87.0544 64.101 87.3706 64.5645 87.517C64.6433 87.5414 64.7268 87.5451 64.815 87.5282C65.3311 87.4382 65.5882 87.1323 65.5863 86.6106V66.2508C65.5844 65.6916 65.3067 65.382 64.7531 65.3219C64.6762 65.3125 64.603 65.3229 64.5336 65.3529C64.1001 65.5368 63.8833 65.7657 63.8833 66.0397C63.8683 69.0628 63.8646 72.01 63.8721 74.8811C63.8721 75.1195 63.8055 75.1401 63.6722 74.9431ZM143.487 68.5505C143.487 68.2116 143.352 67.8866 143.113 67.6469C142.873 67.4072 142.548 67.2726 142.209 67.2726C142.041 67.2726 141.875 67.3057 141.72 67.3699C141.565 67.4341 141.424 67.5282 141.306 67.6469C141.187 67.7656 141.093 67.9065 141.029 68.0615C140.964 68.2165 140.931 68.3827 140.931 68.5505C140.931 68.7184 140.964 68.8845 141.029 69.0396C141.093 69.1946 141.187 69.3355 141.306 69.4542C141.424 69.5729 141.565 69.667 141.72 69.7312C141.875 69.7954 142.041 69.8285 142.209 69.8285C142.548 69.8285 142.873 69.6938 143.113 69.4542C143.352 69.2145 143.487 68.8895 143.487 68.5505ZM89.9488 73.9353C89.9844 74.6841 89.9938 75.3991 89.9769 76.0803C89.915 78.8369 89.9122 81.5936 89.9685 84.3503C89.9873 85.3167 90.1505 86.012 90.4583 86.4361C90.9255 87.0779 91.603 87.4438 92.4906 87.5339C93.3942 87.6267 95.2125 87.3284 94.5201 85.9772C94.4812 85.9009 94.4187 85.8392 94.342 85.8016C94.2653 85.764 94.1786 85.7526 94.095 85.7689C92.9353 85.9857 91.6715 85.9238 91.6687 84.3925C91.6574 80.5587 91.6583 77.0589 91.6715 73.8931C91.6715 73.803 91.7165 73.758 91.8066 73.758H94.4919C94.9123 73.758 95.2229 73.5732 95.4237 73.2035C95.4893 73.0853 95.5043 72.967 95.4687 72.8488C95.3111 72.329 94.9611 72.0691 94.4188 72.0691H91.815C91.7024 72.0691 91.648 72.0119 91.6518 71.8974C91.6874 70.9028 91.6762 69.8792 91.618 68.8264C91.6056 68.6146 91.5119 68.4159 91.3565 68.2721C91.2011 68.1282 90.9961 68.0504 90.7848 68.0551L90.6187 68.0579C90.2115 68.0655 90.0023 68.2728 89.991 68.68L89.8953 71.9002C89.8916 72.0109 89.8343 72.0672 89.7236 72.0691L87.6659 72.0719C87.2306 72.0719 86.9641 72.2849 86.8665 72.7109C86.8496 72.7916 86.844 72.8732 86.8496 72.9558C86.8909 73.4868 87.179 73.7533 87.7138 73.7552L89.7686 73.7636C89.8831 73.7636 89.9432 73.8209 89.9488 73.9353ZM82.1348 74.8558C82.1385 75.0716 82.0794 75.0904 81.9574 74.9121C80.8334 73.272 79.3744 72.3215 77.5804 72.0607C74.1237 71.5596 71.1879 73.4427 70.0084 76.6404C68.4209 80.9359 70.2111 86.6416 75.2018 87.6887C77.8168 88.2376 80.3839 87.0553 81.8871 84.8738C82.0597 84.6224 82.1442 84.6496 82.1404 84.9555L82.1291 86.391C82.1235 86.8545 82.3177 87.2111 82.7118 87.4607C82.8432 87.5432 82.968 87.5686 83.0862 87.5367C83.5966 87.4072 83.8528 87.1051 83.8546 86.6303C83.8603 82.0008 83.8575 77.4464 83.8462 72.967C83.8443 72.5129 83.5807 72.2155 83.0552 72.0747C82.9764 72.0522 82.8976 72.0578 82.8188 72.0916C82.3778 72.2812 82.1526 72.588 82.1432 73.0121C82.1301 73.5957 82.1273 74.2103 82.1348 74.8558ZM110.401 74.9431C107.333 70.3352 100.687 71.2781 98.5847 76.2688C98.0142 77.6219 97.7975 79.1006 97.9345 80.705C98.216 84.0069 100.158 86.8611 103.435 87.6436C106.106 88.2826 108.791 87.1201 110.311 84.871C110.482 84.6177 110.568 84.644 110.568 84.9498L110.565 86.4839C110.565 86.9662 110.785 87.3059 111.226 87.5029C111.341 87.5536 111.458 87.5564 111.578 87.5113C112.049 87.3274 112.285 86.9831 112.285 86.4783C112.288 82.0496 112.285 77.544 112.273 72.9614C112.273 72.5204 112.012 72.223 111.491 72.0691C111.404 72.0428 111.316 72.0513 111.226 72.0944C110.785 72.3084 110.565 72.6321 110.565 73.0656C110.563 73.6698 110.56 74.2806 110.556 74.898C110.554 75.0819 110.503 75.0969 110.401 74.9431ZM135.718 73.8002C135.699 73.8059 135.686 73.8181 135.679 73.8368C134.129 77.4323 132.596 81.0203 131.079 84.6008C131.073 84.6165 131.061 84.6299 131.047 84.6393C131.033 84.6487 131.016 84.6537 130.999 84.6537C130.982 84.6537 130.965 84.6487 130.951 84.6393C130.937 84.6299 130.926 84.6165 130.919 84.6008L125.807 72.5251C125.764 72.4245 125.702 72.3335 125.623 72.2576C125.544 72.1817 125.451 72.1224 125.348 72.0832C124.971 71.9387 124.679 71.9462 124.473 72.1057C124.103 72.3909 124.011 72.7484 124.197 73.1781C126.28 77.9728 128.27 82.5535 130.167 86.9202C130.604 87.9223 131.524 87.5986 131.884 86.7598C133.755 82.4155 135.726 77.8208 137.795 72.9755C137.944 72.6246 137.86 72.345 137.545 72.1367C137.481 72.0935 137.413 72.0597 137.339 72.0353C136.861 71.8777 136.506 72.0231 136.275 72.4716C136.063 72.877 135.889 73.3067 135.752 73.7608C135.746 73.7796 135.735 73.7927 135.718 73.8002ZM143.042 72.9136C143.042 72.6933 142.955 72.4821 142.799 72.3264C142.643 72.1707 142.432 72.0832 142.212 72.0832H142.184C141.964 72.0832 141.752 72.1707 141.597 72.3264C141.441 72.4821 141.353 72.6933 141.353 72.9136V86.7063C141.353 86.8153 141.375 86.9233 141.417 87.0241C141.458 87.1248 141.52 87.2164 141.597 87.2935C141.674 87.3706 141.765 87.4317 141.866 87.4735C141.967 87.5152 142.075 87.5367 142.184 87.5367H142.212C142.321 87.5367 142.429 87.5152 142.53 87.4735C142.631 87.4317 142.722 87.3706 142.799 87.2935C142.876 87.2164 142.937 87.1248 142.979 87.0241C143.021 86.9233 143.042 86.8153 143.042 86.7063V72.9136ZM149.412 85.6901L158.352 73.5328C158.453 73.3963 158.514 73.2345 158.528 73.0654C158.543 72.8963 158.51 72.7264 158.433 72.5747C158.356 72.4231 158.239 72.2955 158.094 72.2062C157.949 72.117 157.782 72.0695 157.612 72.0691H148.475C148.367 72.0691 148.26 72.0905 148.161 72.1322C148.061 72.1738 147.971 72.2349 147.896 72.3117C147.82 72.3885 147.761 72.4796 147.721 72.5795C147.681 72.6795 147.662 72.7864 147.664 72.8939V73.0177C147.668 73.2148 147.749 73.4027 147.89 73.5411C148.031 73.6795 148.221 73.7573 148.419 73.758L155.932 73.7608C156.04 73.7608 156.063 73.8049 155.999 73.8931L147.062 86.1602C146.967 86.2907 146.91 86.4449 146.897 86.6058C146.884 86.7667 146.916 86.928 146.989 87.0719C147.062 87.2158 147.174 87.3366 147.311 87.4211C147.449 87.5057 147.607 87.5505 147.768 87.5507H157.525C157.719 87.5508 157.907 87.4739 158.045 87.3368C158.325 87.0591 158.432 86.7982 158.366 86.5543C158.241 86.0927 157.939 85.8618 157.46 85.8618H149.505C149.485 85.8614 149.464 85.8556 149.447 85.845C149.429 85.8344 149.415 85.8194 149.405 85.8016C149.395 85.7839 149.391 85.7641 149.392 85.7444C149.394 85.7248 149.401 85.706 149.412 85.6901Z" fill="black"/>
<path d="M63.6722 74.9431C63.8055 75.1401 63.8721 75.1195 63.8721 74.8811C63.8646 72.01 63.8683 69.0629 63.8834 66.0397C63.8834 65.7657 64.1001 65.5368 64.5336 65.3529C64.603 65.3229 64.6762 65.3125 64.7531 65.3219C65.3067 65.382 65.5845 65.6916 65.5863 66.2508V86.6106C65.5882 87.1323 65.3311 87.4382 64.8151 87.5282C64.7269 87.5451 64.6434 87.5414 64.5645 87.517C64.101 87.3706 63.8693 87.0544 63.8693 86.5684L63.8721 84.8795C63.8721 84.5736 63.7876 84.5473 63.6188 84.8006C60.9306 88.8456 55.3262 88.7921 52.6352 84.7725C50.1413 81.0485 50.876 75.2048 54.935 72.8319C55.922 72.2558 56.9945 71.9696 58.1523 71.9734C60.5018 71.979 62.3418 72.9689 63.6722 74.9431ZM58.47 86.2193C59.2056 86.2167 59.9334 86.0503 60.6119 85.7295C61.2904 85.4087 61.9063 84.9398 62.4244 84.3496C62.9425 83.7595 63.3527 83.0595 63.6315 82.2898C63.9103 81.5201 64.0523 80.6956 64.0494 79.8635C64.0465 79.0315 63.8987 78.208 63.6145 77.4403C63.3304 76.6725 62.9153 75.9755 62.3931 75.3889C61.8709 74.8024 61.2518 74.3378 60.5711 74.0218C59.8903 73.7057 59.1614 73.5444 58.4258 73.5469C57.6902 73.5495 56.9623 73.7159 56.2838 74.0367C55.6053 74.3575 54.9895 74.8264 54.4714 75.4166C53.9533 76.0068 53.5431 76.7067 53.2643 77.4764C52.9855 78.2462 52.8435 79.0706 52.8464 79.9027C52.8493 80.7348 52.997 81.5582 53.2812 82.3259C53.5654 83.0937 53.9805 83.7908 54.5027 84.3773C55.0249 84.9639 55.644 85.4284 56.3247 85.7445C57.0054 86.0605 57.7344 86.2219 58.47 86.2193Z" fill="white"/>
<path d="M142.209 69.8285C142.915 69.8285 143.487 69.2563 143.487 68.5505C143.487 67.8448 142.915 67.2726 142.209 67.2726C141.503 67.2726 140.931 67.8448 140.931 68.5505C140.931 69.2563 141.503 69.8285 142.209 69.8285Z" fill="white"/>
<path d="M89.7686 73.7636L87.7138 73.7552C87.179 73.7533 86.8909 73.4868 86.8496 72.9558C86.844 72.8732 86.8496 72.7916 86.8665 72.7109C86.9641 72.2849 87.2306 72.0719 87.6659 72.0719L89.7236 72.0691C89.8343 72.0672 89.8916 72.0109 89.8953 71.9002L89.991 68.68C90.0023 68.2728 90.2115 68.0655 90.6187 68.0579L90.7848 68.0551C90.9961 68.0504 91.2011 68.1282 91.3565 68.2721C91.5119 68.4159 91.6056 68.6146 91.618 68.8264C91.6762 69.8792 91.6874 70.9028 91.6518 71.8974C91.648 72.0119 91.7024 72.0691 91.815 72.0691H94.4188C94.9611 72.0691 95.3111 72.329 95.4687 72.8488C95.5043 72.967 95.4893 73.0853 95.4237 73.2035C95.2229 73.5732 94.9123 73.758 94.4919 73.758H91.8066C91.7165 73.758 91.6715 73.803 91.6715 73.8931C91.6583 77.0589 91.6574 80.5587 91.6687 84.3925C91.6715 85.9238 92.9353 85.9857 94.0951 85.7689C94.1786 85.7526 94.2653 85.764 94.342 85.8016C94.4187 85.8392 94.4812 85.9009 94.5201 85.9772C95.2125 87.3284 93.3942 87.6267 92.4906 87.5339C91.603 87.4438 90.9255 87.0779 90.4583 86.4361C90.1505 86.012 89.9873 85.3167 89.9685 84.3503C89.9122 81.5936 89.915 78.8369 89.9769 76.0803C89.9938 75.3991 89.9844 74.6841 89.9488 73.9353C89.9432 73.8209 89.8831 73.7636 89.7686 73.7636Z" fill="white"/>
<path d="M82.1348 74.8558C82.1273 74.2103 82.1301 73.5957 82.1432 73.0121C82.1526 72.588 82.3778 72.2811 82.8188 72.0916C82.8976 72.0578 82.9764 72.0522 83.0552 72.0747C83.5807 72.2155 83.8443 72.5129 83.8462 72.967C83.8574 77.4464 83.8603 82.0008 83.8546 86.6303C83.8528 87.1051 83.5966 87.4072 83.0862 87.5367C82.968 87.5686 82.8432 87.5432 82.7118 87.4607C82.3177 87.2111 82.1235 86.8545 82.1291 86.391L82.1404 84.9555C82.1441 84.6496 82.0597 84.6224 81.8871 84.8738C80.3839 87.0553 77.8168 88.2376 75.2018 87.6887C70.2111 86.6415 68.4208 80.9359 70.0084 76.6404C71.1878 73.4427 74.1237 71.5596 77.5803 72.0607C79.3743 72.3215 80.8334 73.272 81.9574 74.9121C82.0794 75.0904 82.1385 75.0716 82.1348 74.8558ZM76.6687 86.2221C78.1543 86.2273 79.5814 85.5641 80.6361 84.3785C81.6907 83.1928 82.2865 81.5818 82.2924 79.8999C82.2953 79.067 82.1533 78.2419 81.8745 77.4714C81.5956 76.701 81.1855 76.0005 80.6674 75.4098C80.1493 74.8191 79.5334 74.3498 78.8549 74.0287C78.1764 73.7076 77.4486 73.541 76.713 73.5385C75.2274 73.5333 73.8003 74.1965 72.7456 75.3821C71.691 76.5678 71.0952 78.1788 71.0893 79.8607C71.0864 80.6935 71.2284 81.5187 71.5073 82.2891C71.7861 83.0595 72.1962 83.7601 72.7143 84.3508C73.2324 84.9415 73.8483 85.4108 74.5268 85.7319C75.2053 86.053 75.9331 86.2195 76.6687 86.2221Z" fill="white"/>
<path d="M110.556 74.898C110.56 74.2806 110.563 73.6698 110.565 73.0656C110.565 72.6321 110.785 72.3084 111.226 72.0944C111.316 72.0513 111.404 72.0428 111.491 72.0691C112.012 72.223 112.273 72.5204 112.273 72.9614C112.285 77.544 112.288 82.0496 112.285 86.4783C112.285 86.9831 112.049 87.3274 111.578 87.5113C111.458 87.5564 111.341 87.5536 111.226 87.5029C110.785 87.3058 110.565 86.9662 110.565 86.4839L110.568 84.9498C110.568 84.6439 110.482 84.6177 110.311 84.871C108.791 87.1201 106.106 88.2826 103.435 87.6436C100.158 86.8611 98.216 84.0069 97.9345 80.705C97.7975 79.1006 98.0143 77.6218 98.5847 76.2688C100.687 71.2781 107.333 70.3352 110.401 74.9431C110.503 75.0969 110.554 75.0819 110.556 74.898ZM105.099 86.2221C105.835 86.2247 106.564 86.0632 107.245 85.7468C107.926 85.4305 108.546 84.9655 109.068 84.3785C109.59 83.7914 110.006 83.0937 110.29 82.3253C110.574 81.5568 110.722 80.7327 110.725 79.8999C110.728 79.067 110.586 78.2419 110.307 77.4715C110.028 76.701 109.618 76.0005 109.099 75.4098C108.581 74.8191 107.965 74.3498 107.286 74.0287C106.607 73.7076 105.879 73.541 105.143 73.5385C104.407 73.5359 103.678 73.6974 102.997 74.0137C102.315 74.3301 101.696 74.795 101.174 75.3821C100.651 75.9692 100.236 76.6669 99.9515 77.4353C99.6672 78.2038 99.5194 79.0279 99.5165 79.8607C99.5136 80.6935 99.6556 81.5187 99.9346 82.2891C100.214 83.0595 100.624 83.7601 101.142 84.3508C101.661 84.9415 102.277 85.4108 102.956 85.7319C103.635 86.053 104.363 86.2195 105.099 86.2221Z" fill="white"/>
<path d="M135.752 73.7608C135.889 73.3067 136.063 72.877 136.276 72.4716C136.506 72.0231 136.861 71.8777 137.34 72.0353C137.413 72.0597 137.481 72.0935 137.545 72.1367C137.86 72.345 137.944 72.6246 137.796 72.9755C135.726 77.8208 133.755 82.4155 131.884 86.7598C131.524 87.5986 130.604 87.9223 130.167 86.9202C128.27 82.5535 126.28 77.9728 124.197 73.1781C124.011 72.7484 124.103 72.3909 124.473 72.1057C124.679 71.9462 124.971 71.9387 125.348 72.0832C125.451 72.1224 125.544 72.1817 125.623 72.2576C125.702 72.3335 125.764 72.4245 125.807 72.5251L130.919 84.6008C130.926 84.6165 130.937 84.6299 130.951 84.6393C130.965 84.6487 130.982 84.6537 130.999 84.6537C131.016 84.6537 131.033 84.6487 131.047 84.6393C131.061 84.6299 131.073 84.6165 131.079 84.6008C132.596 81.0203 134.129 77.4323 135.679 73.8368C135.686 73.8181 135.699 73.8059 135.718 73.8002C135.735 73.7927 135.746 73.7796 135.752 73.7608Z" fill="white"/>
<path d="M142.212 72.0832H142.184C141.725 72.0832 141.353 72.4549 141.353 72.9136V86.7063C141.353 87.1649 141.725 87.5367 142.184 87.5367H142.212C142.671 87.5367 143.042 87.1649 143.042 86.7063V72.9136C143.042 72.4549 142.671 72.0832 142.212 72.0832Z" fill="white"/>
<path d="M158.352 73.5328L149.412 85.6901C149.401 85.706 149.394 85.7248 149.392 85.7444C149.391 85.7641 149.395 85.7839 149.405 85.8016C149.415 85.8194 149.429 85.8344 149.447 85.845C149.464 85.8556 149.485 85.8614 149.505 85.8618H157.46C157.938 85.8618 158.241 86.0927 158.366 86.5543C158.432 86.7982 158.325 87.0591 158.045 87.3368C157.906 87.4739 157.719 87.5508 157.525 87.5508H147.768C147.607 87.5505 147.449 87.5057 147.311 87.4212C147.174 87.3366 147.062 87.2158 146.989 87.0719C146.916 86.928 146.884 86.7667 146.897 86.6058C146.91 86.4449 146.967 86.2907 147.062 86.1602L155.999 73.8931C156.063 73.8049 156.04 73.7608 155.932 73.7608L148.419 73.758C148.221 73.7573 148.031 73.6795 147.89 73.5411C147.749 73.4027 147.668 73.2149 147.664 73.0177V72.8939C147.662 72.7864 147.681 72.6795 147.721 72.5795C147.761 72.4796 147.82 72.3885 147.896 72.3117C147.971 72.2349 148.061 72.1738 148.161 72.1322C148.26 72.0905 148.367 72.0691 148.475 72.0691H157.612C157.782 72.0695 157.949 72.117 158.094 72.2062C158.239 72.2955 158.356 72.4231 158.433 72.5747C158.51 72.7264 158.543 72.8963 158.528 73.0654C158.514 73.2345 158.453 73.3963 158.352 73.5328Z" fill="white"/>
<path d="M52.8464 79.9027C52.8586 83.402 55.3764 86.2301 58.47 86.2193C61.5636 86.2085 64.0616 83.3629 64.0494 79.8636C64.0372 76.3642 61.5194 73.5361 58.4258 73.5469C55.3322 73.5577 52.8342 76.4033 52.8464 79.9027Z" fill="black"/>
<path d="M71.0894 79.8607C71.0771 83.3632 73.5751 86.2113 76.6687 86.2221C79.7624 86.2329 82.2802 83.4023 82.2924 79.8999C82.3046 76.3974 79.8066 73.5493 76.713 73.5385C73.6194 73.5277 71.1016 76.3583 71.0894 79.8607Z" fill="black"/>
<path d="M99.5165 79.8607C99.5043 83.3632 102.003 86.2113 105.099 86.2221C108.194 86.2329 110.713 83.4023 110.725 79.8999C110.737 76.3974 108.238 73.5493 105.143 73.5385C102.048 73.5277 99.5287 76.3582 99.5165 79.8607Z" fill="black"/>
</g>
<line x1="42.6938" y1="66.0569" x2="42.6938" y2="4.79446" stroke="#FFED00" stroke-width="5"/>
<line x1="4.28363" y1="4.79451" x2="4.28363" y2="66.057" stroke="#FFED00" stroke-width="5"/>
<line x1="24.313" y1="66.0569" x2="24.313" y2="89.2412" stroke="#FFED00" stroke-width="5"/>
<line x1="2.81403" y1="63.527" x2="43.3866" y2="63.527" stroke="#FFED00" stroke-width="5"/>
<path d="M12.6421 32.7858C12.9016 33.6276 13.5979 34.2688 14.4584 34.4629C15.5884 34.7161 17.3473 34.9996 19.3879 34.9577L11.7627 27.9269C11.8839 29.9596 12.3014 31.6803 12.6421 32.7858ZM33.7265 13.5829C33.467 12.741 32.7707 12.0999 31.9102 11.9058C30.7802 11.6526 29.0213 11.369 26.9807 11.4109L34.6059 18.4417C34.4847 16.4091 34.0672 14.6884 33.7265 13.5829ZM34.5324 21.4333L24.0049 11.7209C17.8461 12.8834 12.5989 17.751 11.8315 24.9355L22.3637 34.6478C28.5225 33.4853 33.7698 28.6176 34.5324 21.4333ZM19.9325 27.8246C19.7935 27.9755 19.555 27.9853 19.4041 27.8463L18.8539 27.3397C18.703 27.2007 18.6931 26.9622 18.8321 26.8113L20.101 25.4333L18.7231 24.1644C18.5722 24.0255 18.5623 23.787 18.7013 23.636L19.208 23.0858C19.347 22.9349 19.5855 22.9251 19.7364 23.0641L21.1143 24.3329L22.1275 23.2279L20.7495 21.959C20.5986 21.82 20.5888 21.5815 20.7278 21.4306L21.2344 20.8804C21.3734 20.7294 21.6119 20.7196 21.7628 20.8586L23.1408 22.1275L24.1541 21.0271L22.7762 19.7582C22.6252 19.6192 22.6154 19.3807 22.7544 19.2298L23.261 18.6796C23.4 18.5286 23.6385 18.5188 23.7895 18.6578L25.1674 19.9267L26.4363 18.5488C26.5753 18.3978 26.8138 18.388 26.9647 18.527L27.5149 19.0337C27.6658 19.1726 27.6757 19.4111 27.5367 19.5621L26.2678 20.94L27.6455 22.2042C27.7965 22.3432 27.8063 22.5817 27.6673 22.7326L27.1606 23.2828C27.0216 23.4338 26.7831 23.4436 26.6322 23.3046L25.2543 22.0357L24.241 23.1361L25.6189 24.405C25.7698 24.544 25.7797 24.7825 25.6407 24.9334L25.134 25.4836C24.995 25.6346 24.7565 25.6444 24.6056 25.5054L23.2277 24.2365L22.2143 25.3369L23.5923 26.6058C23.7432 26.7448 23.753 26.9833 23.614 27.1342L23.1074 27.6844C22.9684 27.8353 22.7299 27.8452 22.579 27.7062L21.201 26.4373L19.9325 27.8246Z" fill="#842801"/>
<path d="M21.0993 26.6763L19.9967 27.8164C19.9377 27.8768 19.8578 27.9125 19.7734 27.9161C19.689 27.9197 19.6063 27.891 19.5424 27.8358L18.9243 27.2828C18.8917 27.2535 18.8651 27.218 18.8462 27.1784C18.8274 27.1387 18.8166 27.0957 18.8144 27.0519C18.8123 27.0081 18.8188 26.9642 18.8337 26.9229C18.8487 26.8816 18.8716 26.8437 18.9013 26.8114L19.9877 25.651C20.0173 25.6186 20.0403 25.5807 20.0552 25.5394C20.0701 25.4981 20.0767 25.4543 20.0745 25.4104C20.0724 25.3666 20.0616 25.3236 20.0427 25.284C20.0238 25.2443 19.9973 25.2088 19.9646 25.1795L18.7541 24.1098C18.6891 24.0522 18.6492 23.9715 18.643 23.8849C18.6368 23.7983 18.6647 23.7127 18.7209 23.6465L19.2442 23.0288C19.3001 22.961 19.3805 22.918 19.468 22.9094C19.5555 22.9008 19.6428 22.9273 19.7108 22.983L21.0127 24.063C21.0461 24.0911 21.0846 24.1123 21.1262 24.1255C21.1677 24.1387 21.2115 24.1436 21.2549 24.1398C21.2984 24.1361 21.3407 24.1239 21.3794 24.1038C21.4181 24.0837 21.4524 24.0562 21.4805 24.0229L22.0026 23.3995C22.0307 23.3662 22.0519 23.3276 22.0651 23.286C22.0783 23.2445 22.0832 23.2007 22.0794 23.1573C22.0757 23.1139 22.0634 23.0716 22.0434 23.0329C22.0233 22.9942 21.9958 22.9598 21.9624 22.9317L20.7836 21.9267C20.7498 21.8978 20.7221 21.8624 20.7022 21.8226C20.6823 21.7828 20.6707 21.7394 20.6679 21.6951C20.6651 21.6507 20.6712 21.6062 20.686 21.5642C20.7007 21.5222 20.7237 21.4836 20.7537 21.4508L21.351 20.8173C21.411 20.7536 21.4937 20.7162 21.5812 20.7132C21.6686 20.7101 21.7537 20.7418 21.818 20.8012L22.9715 21.8831C23.0035 21.9133 23.0412 21.9368 23.0824 21.9523C23.1236 21.9678 23.1674 21.9749 23.2114 21.9733C23.2554 21.9717 23.2986 21.9614 23.3386 21.9429C23.3785 21.9244 23.4144 21.8982 23.4441 21.8657L24.0492 21.2128C24.0794 21.1793 24.1026 21.1401 24.1171 21.0974C24.1317 21.0548 24.1375 21.0096 24.134 20.9646C24.1306 20.9197 24.118 20.8759 24.0971 20.836C24.0761 20.7961 24.0473 20.7608 24.0123 20.7324L22.8639 19.7863C22.7987 19.7321 22.7567 19.655 22.7465 19.5708C22.7363 19.4867 22.7587 19.4018 22.8091 19.3336L23.3403 18.613C23.3684 18.5751 23.4044 18.5436 23.4457 18.5207C23.487 18.4977 23.5327 18.4839 23.5798 18.4801C23.6269 18.4762 23.6743 18.4825 23.7188 18.4984C23.7632 18.5144 23.8038 18.5396 23.8377 18.5725L24.994 19.6955C25.0257 19.7262 25.0632 19.7504 25.1043 19.7664C25.1454 19.7825 25.1893 19.7902 25.2334 19.7892C25.2775 19.7881 25.321 19.7782 25.3613 19.7601C25.4015 19.742 25.4378 19.7161 25.4679 19.6838L26.5624 18.5336C26.6198 18.4722 26.6984 18.4348 26.7823 18.4291C26.8662 18.4234 26.9491 18.4497 27.0143 18.5028L27.7137 19.0742C27.75 19.1037 27.7797 19.1406 27.8008 19.1824C27.8219 19.2243 27.8338 19.2701 27.8359 19.3169C27.838 19.3637 27.8302 19.4104 27.813 19.4539C27.7957 19.4975 27.7695 19.5369 27.7359 19.5696L26.5951 20.6701C26.5618 20.7023 26.5357 20.7411 26.5183 20.7839C26.5009 20.8268 26.4927 20.8728 26.4942 20.919C26.4956 20.9652 26.5067 21.0106 26.5267 21.0523C26.5467 21.094 26.5752 21.131 26.6104 21.1611L27.792 22.2072C27.8566 22.2656 27.8956 22.347 27.9008 22.4339C27.9059 22.5207 27.8768 22.6062 27.8195 22.6717L27.2388 23.3552C27.2092 23.3906 27.1725 23.4194 27.1312 23.4398C27.0898 23.4602 27.0447 23.4717 26.9986 23.4737C26.9525 23.4757 26.9065 23.468 26.8636 23.4513C26.8206 23.4345 26.7816 23.4089 26.7491 23.3762L25.6237 22.2586C25.5929 22.2275 25.5563 22.2028 25.5159 22.186C25.4756 22.1691 25.4323 22.1604 25.3886 22.1603C25.3449 22.1602 25.3016 22.1688 25.2611 22.1855C25.2207 22.2022 25.184 22.2267 25.1531 22.2576L24.5745 22.8394C24.5432 22.8707 24.5185 22.908 24.5019 22.949C24.4852 22.99 24.4769 23.0339 24.4774 23.0782C24.478 23.1225 24.4874 23.1662 24.5051 23.2068C24.5228 23.2473 24.5484 23.284 24.5805 23.3145L25.7425 24.4363C25.8048 24.4954 25.8417 24.5764 25.8456 24.6621C25.8494 24.7479 25.8199 24.8318 25.7632 24.8963L25.191 25.5363C25.1613 25.5697 25.1252 25.5968 25.0848 25.6159C25.0443 25.635 25.0005 25.6457 24.9558 25.6474C24.9111 25.6492 24.8666 25.6419 24.8248 25.626C24.783 25.61 24.7449 25.5859 24.7127 25.5549L23.5507 24.4331C23.5174 24.4014 23.478 24.3771 23.4348 24.3615C23.3916 24.3459 23.3457 24.3394 23.2999 24.3424C23.2541 24.3455 23.2095 24.358 23.1688 24.3792C23.1281 24.4003 23.0922 24.4297 23.0634 24.4655L22.5339 25.138C22.483 25.2045 22.459 25.2877 22.4668 25.371C22.4747 25.4544 22.5137 25.5317 22.5761 25.5875L23.7451 26.6304C23.7791 26.6609 23.8065 26.6981 23.8254 26.7396C23.8444 26.7811 23.8546 26.8261 23.8554 26.8718C23.8562 26.9174 23.8476 26.9628 23.83 27.0049C23.8125 27.0471 23.7865 27.0852 23.7535 27.1168L23.0968 27.751C23.0337 27.8112 22.9494 27.8442 22.8622 27.8427C22.7749 27.8412 22.6918 27.8055 22.6307 27.7432L21.5744 26.6703C21.5431 26.639 21.5058 26.6143 21.4648 26.5976C21.4238 26.581 21.3799 26.5727 21.3356 26.5732C21.2913 26.5738 21.2476 26.5832 21.2071 26.6009C21.1665 26.6186 21.1299 26.6442 21.0993 26.6763Z" fill="white"/>
<path d="M11.9589 28.0647L11.6847 26.3369L11.9508 24.7917L17.1775 29.5022L22.5814 34.6024L21.5322 34.826L19.388 34.9853L11.9589 28.0647Z" fill="white"/>
<path d="M34.653 18.1667L34.8351 19.021L34.854 20.5055L34.7514 21.4205L24.0552 11.7447L25.4316 11.4513L27.5759 11.2921L34.653 18.1667Z" fill="white"/>
<rect width="1.48526" height="12.3772" transform="matrix(-1 0 0 1 10.8644 48.6933)" fill="#0F6292"/>
<rect width="1.48526" height="29.7053" transform="matrix(-1 0 0 1 37.5991 31.3652)" fill="#0F6292"/>
<rect width="1.48526" height="19.8035" transform="matrix(-1 0 0 1 33.1432 41.267)" fill="#0F6292"/>
<rect width="1.48526" height="22.2789" transform="matrix(-1 0 0 1 28.6875 38.7915)" fill="#0F6292"/>
<rect width="1.48526" height="17.3281" transform="matrix(-1 0 0 1 19.7759 43.7424)" fill="#0F6292"/>
<rect width="1.48526" height="14.8526" transform="matrix(-1 0 0 1 24.2317 46.2179)" fill="#0F6292"/>
<rect width="1.48526" height="9.90175" transform="matrix(-1 0 0 1 15.3201 51.1687)" fill="#0F6292"/>
<defs>
<clipPath id="clip0_431_203">
<rect width="111.749" height="56.4171" fill="white" transform="translate(54.2507 5.93506)"/>
</clipPath>
<clipPath id="clip1_431_203">
<rect width="111.749" height="31.8077" fill="white" transform="translate(49.6543 60.8097)"/>
</clipPath>
</defs>
</svg>
