<svg width="47" height="89" viewBox="0 0 47 89" fill="none" xmlns="http://www.w3.org/2000/svg">
<path d="M21.0993 26.6763L19.9967 27.8164C19.9377 27.8768 19.8578 27.9125 19.7734 27.9161C19.689 27.9197 19.6063 27.891 19.5424 27.8358L18.9243 27.2828C18.8917 27.2535 18.8651 27.218 18.8462 27.1784C18.8274 27.1387 18.8166 27.0957 18.8144 27.0519C18.8123 27.0081 18.8188 26.9642 18.8337 26.9229C18.8487 26.8816 18.8716 26.8437 18.9013 26.8114L19.9877 25.651C20.0173 25.6186 20.0403 25.5807 20.0552 25.5394C20.0701 25.4981 20.0767 25.4543 20.0745 25.4104C20.0724 25.3666 20.0616 25.3236 20.0427 25.284C20.0238 25.2443 19.9973 25.2088 19.9646 25.1795L18.7541 24.1098C18.6891 24.0522 18.6492 23.9715 18.643 23.8849C18.6368 23.7983 18.6647 23.7127 18.7209 23.6465L19.2442 23.0288C19.3001 22.961 19.3805 22.918 19.468 22.9094C19.5555 22.9008 19.6428 22.9273 19.7108 22.983L21.0127 24.063C21.0461 24.0911 21.0846 24.1123 21.1262 24.1255C21.1677 24.1387 21.2115 24.1436 21.2549 24.1398C21.2984 24.1361 21.3407 24.1239 21.3794 24.1038C21.4181 24.0837 21.4524 24.0562 21.4805 24.0229L22.0026 23.3995C22.0307 23.3662 22.0519 23.3276 22.0651 23.286C22.0783 23.2445 22.0832 23.2007 22.0794 23.1573C22.0757 23.1139 22.0634 23.0716 22.0434 23.0329C22.0233 22.9942 21.9958 22.9598 21.9624 22.9317L20.7836 21.9266C20.7498 21.8978 20.7221 21.8624 20.7022 21.8226C20.6823 21.7828 20.6707 21.7394 20.6679 21.6951C20.6651 21.6507 20.6712 21.6062 20.686 21.5642C20.7007 21.5222 20.7237 21.4836 20.7537 21.4508L21.351 20.8173C21.411 20.7536 21.4937 20.7162 21.5812 20.7132C21.6686 20.7101 21.7537 20.7418 21.818 20.8012L22.9715 21.8831C23.0035 21.9133 23.0412 21.9368 23.0824 21.9523C23.1236 21.9678 23.1674 21.9749 23.2114 21.9733C23.2554 21.9717 23.2986 21.9614 23.3386 21.9429C23.3785 21.9244 23.4144 21.8982 23.4441 21.8657L24.0492 21.2128C24.0794 21.1793 24.1026 21.1401 24.1171 21.0974C24.1317 21.0548 24.1375 21.0096 24.134 20.9646C24.1306 20.9197 24.118 20.8759 24.0971 20.836C24.0761 20.7961 24.0473 20.7608 24.0123 20.7324L22.8639 19.7863C22.7987 19.7321 22.7567 19.655 22.7465 19.5708C22.7363 19.4867 22.7587 19.4018 22.8091 19.3336L23.3403 18.613C23.3684 18.5751 23.4044 18.5436 23.4457 18.5207C23.487 18.4977 23.5327 18.4839 23.5798 18.4801C23.6269 18.4762 23.6743 18.4825 23.7188 18.4984C23.7632 18.5144 23.8038 18.5396 23.8377 18.5725L24.994 19.6955C25.0257 19.7262 25.0632 19.7504 25.1043 19.7664C25.1454 19.7825 25.1893 19.7902 25.2334 19.7892C25.2775 19.7881 25.321 19.7782 25.3613 19.7601C25.4015 19.742 25.4378 19.7161 25.4679 19.6838L26.5624 18.5336C26.6198 18.4722 26.6984 18.4348 26.7823 18.4291C26.8662 18.4234 26.9491 18.4497 27.0143 18.5028L27.7137 19.0742C27.75 19.1037 27.7797 19.1406 27.8008 19.1824C27.8219 19.2243 27.8338 19.2701 27.8359 19.3169C27.838 19.3637 27.8302 19.4104 27.813 19.4539C27.7957 19.4975 27.7695 19.5369 27.7359 19.5696L26.5951 20.6701C26.5618 20.7023 26.5357 20.7411 26.5183 20.7839C26.5009 20.8268 26.4927 20.8728 26.4942 20.919C26.4956 20.9652 26.5067 21.0106 26.5267 21.0523C26.5467 21.094 26.5752 21.131 26.6104 21.1611L27.792 22.2072C27.8566 22.2656 27.8956 22.347 27.9008 22.4339C27.9059 22.5207 27.8768 22.6062 27.8195 22.6717L27.2388 23.3552C27.2092 23.3906 27.1725 23.4194 27.1312 23.4398C27.0898 23.4602 27.0447 23.4717 26.9986 23.4737C26.9525 23.4757 26.9065 23.468 26.8636 23.4513C26.8206 23.4345 26.7816 23.4089 26.7491 23.3762L25.6237 22.2586C25.5929 22.2275 25.5563 22.2028 25.5159 22.186C25.4756 22.1691 25.4323 22.1604 25.3886 22.1603C25.3449 22.1602 25.3016 22.1688 25.2611 22.1855C25.2207 22.2022 25.184 22.2267 25.1531 22.2576L24.5745 22.8394C24.5432 22.8707 24.5185 22.908 24.5019 22.949C24.4852 22.99 24.4769 23.0339 24.4774 23.0782C24.478 23.1225 24.4874 23.1662 24.5051 23.2068C24.5228 23.2473 24.5484 23.284 24.5805 23.3145L25.7425 24.4363C25.8048 24.4954 25.8417 24.5764 25.8456 24.6621C25.8494 24.7479 25.8199 24.8318 25.7632 24.8963L25.191 25.5363C25.1613 25.5697 25.1252 25.5968 25.0848 25.6159C25.0443 25.635 25.0005 25.6457 24.9558 25.6474C24.9111 25.6492 24.8666 25.6419 24.8248 25.626C24.783 25.61 24.7449 25.5859 24.7127 25.5549L23.5507 24.4331C23.5174 24.4014 23.478 24.3771 23.4348 24.3615C23.3917 24.3459 23.3457 24.3394 23.2999 24.3424C23.2541 24.3455 23.2095 24.358 23.1688 24.3792C23.1281 24.4003 23.0922 24.4297 23.0634 24.4655L22.5339 25.138C22.483 25.2045 22.459 25.2877 22.4668 25.371C22.4747 25.4544 22.5137 25.5317 22.5761 25.5875L23.7451 26.6304C23.7791 26.6609 23.8065 26.6981 23.8254 26.7396C23.8444 26.7811 23.8546 26.8261 23.8554 26.8718C23.8562 26.9174 23.8476 26.9628 23.83 27.0049C23.8125 27.0471 23.7865 27.0852 23.7535 27.1168L23.0968 27.751C23.0337 27.8112 22.9494 27.8442 22.8622 27.8427C22.7749 27.8412 22.6918 27.8055 22.6307 27.7432L21.5744 26.6703C21.5431 26.639 21.5058 26.6143 21.4648 26.5976C21.4238 26.581 21.3799 26.5727 21.3356 26.5732C21.2913 26.5738 21.2476 26.5832 21.2071 26.6009C21.1665 26.6186 21.1299 26.6442 21.0993 26.6763Z" fill="white"/>
<path d="M34.653 18.1667L34.8351 19.021L34.854 20.5055L34.7514 21.4205L24.0552 11.7447L25.4316 11.4513L27.5759 11.2921L34.653 18.1667Z" fill="white"/>
<line x1="42.6938" y1="66.0569" x2="42.6938" y2="4.79443" stroke="#FFED00" stroke-width="5"/>
<line x1="4.28363" y1="4.79449" x2="4.28363" y2="66.057" stroke="#FFED00" stroke-width="5"/>
<line x1="24.313" y1="65.0568" x2="24.313" y2="88.2412" stroke="#FFED00" stroke-width="5"/>
<line x1="2.81403" y1="63.527" x2="43.3866" y2="63.527" stroke="#FFED00" stroke-width="5"/>
<path d="M12.6421 32.7858C12.9016 33.6276 13.5979 34.2688 14.4584 34.4629C15.5884 34.7161 17.3473 34.9997 19.3879 34.9578L11.7627 27.927C11.8839 29.9596 12.3014 31.6803 12.6421 32.7858ZM33.7265 13.5829C33.467 12.7411 32.7707 12.0999 31.9102 11.9058C30.7802 11.6526 29.0213 11.369 26.9807 11.411L34.6059 18.4418C34.4847 16.4091 34.0672 14.6884 33.7265 13.5829ZM34.5324 21.4334L24.0049 11.7209C17.8461 12.8834 12.5989 17.7511 11.8315 24.9356L22.3637 34.6478C28.5225 33.4853 33.7698 28.6177 34.5324 21.4334ZM19.9325 27.8246C19.7935 27.9755 19.555 27.9854 19.4041 27.8464L18.8539 27.3397C18.703 27.2007 18.6931 26.9622 18.8321 26.8113L20.101 25.4334L18.7231 24.1645C18.5722 24.0255 18.5623 23.787 18.7013 23.636L19.208 23.0859C19.347 22.9349 19.5855 22.9251 19.7364 23.0641L21.1143 24.333L22.1275 23.2279L20.7495 21.959C20.5986 21.82 20.5888 21.5815 20.7278 21.4306L21.2344 20.8804C21.3734 20.7295 21.6119 20.7196 21.7628 20.8586L23.1408 22.1275L24.1541 21.0271L22.7762 19.7582C22.6252 19.6192 22.6154 19.3807 22.7544 19.2298L23.261 18.6796C23.4 18.5287 23.6385 18.5188 23.7895 18.6578L25.1674 19.9267L26.4363 18.5488C26.5753 18.3979 26.8138 18.388 26.9647 18.527L27.5149 19.0337C27.6658 19.1727 27.6757 19.4112 27.5367 19.5621L26.2678 20.94L27.6455 22.2042C27.7965 22.3432 27.8063 22.5817 27.6673 22.7327L27.1606 23.2829C27.0216 23.4338 26.7831 23.4436 26.6322 23.3046L25.2543 22.0357L24.241 23.1361L25.6189 24.405C25.7698 24.544 25.7797 24.7825 25.6407 24.9335L25.134 25.4836C24.995 25.6346 24.7565 25.6444 24.6056 25.5054L23.2277 24.2365L22.2143 25.3369L23.5923 26.6058C23.7432 26.7448 23.753 26.9833 23.614 27.1342L23.1074 27.6844C22.9684 27.8354 22.7299 27.8452 22.579 27.7062L21.201 26.4373L19.9325 27.8246Z" fill="#842801"/>
<path d="M11.9589 28.0647L11.6847 26.3369L11.9508 24.7917L17.1775 29.5022L22.5814 34.6024L21.5322 34.826L19.388 34.9853L11.9589 28.0647Z" fill="white"/>
<rect width="1.48526" height="12.3772" transform="matrix(-1 0 0 1 10.8644 48.6933)" fill="#0F6292"/>
<rect width="1.48526" height="29.7053" transform="matrix(-1 0 0 1 37.5991 31.3652)" fill="#0F6292"/>
<rect width="1.48526" height="19.8035" transform="matrix(-1 0 0 1 33.1432 41.267)" fill="#0F6292"/>
<rect width="1.48526" height="22.2789" transform="matrix(-1 0 0 1 28.6875 38.7916)" fill="#0F6292"/>
<rect width="1.48526" height="17.3281" transform="matrix(-1 0 0 1 19.7759 43.7424)" fill="#0F6292"/>
<rect width="1.48526" height="14.8526" transform="matrix(-1 0 0 1 24.2317 46.2179)" fill="#0F6292"/>
<rect width="1.48526" height="9.90175" transform="matrix(-1 0 0 1 15.3201 51.1687)" fill="#0F6292"/>
</svg>
